HIERARCHY
ROOT Hips
{
	OFFSET 0.000000 71.427986 0.000000
	CHANNELS 6 Xposition Yposition Zposition Xrotation Yrotation Zrotation
	JOINT Pelvis
	{
		OFFSET 0.000000 0.000000 0.000000
		CHANNELS 3 Xrotation Yrotation Zrotation
		JOINT LeftUpLeg
		{
			OFFSET 6.797100 -2.508499 -1.318700
			CHANNELS 3 Xrotation Yrotation Zrotation
			JOINT LeftLeg
			{
				OFFSET 0.069008 -29.241863 0.690200
				CHANNELS 3 Xrotation Yrotation Zrotation
				JOINT LeftFoot
				{
					OFFSET -0.069008 -29.568123 -0.266800
					CHANNELS 3 Xrotation Yrotation Zrotation
					JOINT LeftToeBase
					{
						OFFSET 3.145500 -8.631000 16.059900
						CHANNELS 3 Xrotation Yrotation Zrotation
						End Site
						{
							OFFSET 0.000000 18.501587 0.000000
						}
					}
				}
			}
			JOINT Left_ShortSleeve
			{
				OFFSET 0.265923 -10.480953 1.153800
				CHANNELS 3 Xrotation Yrotation Zrotation
				End Site
				{
					OFFSET 1.725763 19.823879 0.000000
				}
			}
		}
		JOINT RightUpLeg
		{
			OFFSET -6.797100 -2.508499 -1.318700
			CHANNELS 3 Xrotation Yrotation Zrotation
			JOINT RightLeg
			{
				OFFSET -0.082453 -29.241932 0.688000
				CHANNELS 3 Xrotation Yrotation Zrotation
				JOINT RightFoot
				{
					OFFSET 0.082453 -29.568058 -0.264600
					CHANNELS 3 Xrotation Yrotation Zrotation
					JOINT RightToeBase
					{
						OFFSET -3.115300 -8.682800 16.113400
						CHANNELS 3 Xrotation Yrotation Zrotation
						End Site
						{
							OFFSET 0.000000 18.567114 0.000000
						}
					}
				}
			}
			JOINT Right_ShortSleeve
			{
				OFFSET -0.265923 -10.480953 1.153800
				CHANNELS 3 Xrotation Yrotation Zrotation
				End Site
				{
					OFFSET -1.725766 19.823910 0.000000
				}
			}
		}
	}
	JOINT Spine
	{
		OFFSET 0.000000 13.368103 0.470500
		CHANNELS 3 Xrotation Yrotation Zrotation
		JOINT Spine1
		{
			OFFSET 0.147000 13.837402 0.538800
			CHANNELS 3 Xrotation Yrotation Zrotation
			JOINT Spine2
			{
				OFFSET 0.168000 16.242897 -1.435500
				CHANNELS 3 Xrotation Yrotation Zrotation
				JOINT Neck
				{
					OFFSET 0.217200 18.631500 -1.679100
					CHANNELS 3 Xrotation Yrotation Zrotation
					JOINT Head
					{
						OFFSET 0.000000 6.599396 1.385900
						CHANNELS 3 Xrotation Yrotation Zrotation
						JOINT Hat
						{
							OFFSET -0.532200 27.220596 -10.096100
							CHANNELS 3 Xrotation Yrotation Zrotation
							End Site
							{
								OFFSET 0.000000 22.029861 0.000000
							}
						}
						JOINT HairD
						{
							OFFSET -10.777400 17.437393 -1.325900
							CHANNELS 3 Xrotation Yrotation Zrotation
							JOINT HairD1
							{
								OFFSET -3.290299 -11.051193 1.062200
								CHANNELS 3 Xrotation Yrotation Zrotation
								End Site
								{
									OFFSET 0.000000 11.579437 0.000000
								}
							}
						}
						JOINT HairB
						{
							OFFSET -10.777400 17.437393 1.467900
							CHANNELS 3 Xrotation Yrotation Zrotation
							JOINT HairB1
							{
								OFFSET -1.561200 -12.956299 3.590200
								CHANNELS 3 Xrotation Yrotation Zrotation
								End Site
								{
									OFFSET 0.000000 13.534866 0.000000
								}
							}
						}
						JOINT HairA
						{
							OFFSET 9.713100 17.437393 1.467900
							CHANNELS 3 Xrotation Yrotation Zrotation
							JOINT HairA1
							{
								OFFSET 1.561200 -12.956299 3.590200
								CHANNELS 3 Xrotation Yrotation Zrotation
								End Site
								{
									OFFSET 0.000000 13.534866 0.000000
								}
							}
						}
						JOINT HairC
						{
							OFFSET 9.713100 17.437393 -1.325900
							CHANNELS 3 Xrotation Yrotation Zrotation
							JOINT HairC1
							{
								OFFSET 3.290300 -11.051193 1.062200
								CHANNELS 3 Xrotation Yrotation Zrotation
								End Site
								{
									OFFSET 0.000000 11.579437 0.000000
								}
							}
						}
					}
				}
				JOINT LeftShoulder
				{
					OFFSET 5.101800 15.108002 -2.763700
					CHANNELS 3 Xrotation Yrotation Zrotation
					JOINT LeftArm
					{
						OFFSET 9.825497 2.506317 -1.597400
						CHANNELS 3 Xrotation Yrotation Zrotation
						JOINT LeftForeArm
						{
							OFFSET 21.966244 0.000000 0.000000
							CHANNELS 3 Xrotation Yrotation Zrotation
							JOINT LeftHand
							{
								OFFSET 33.879036 0.000000 0.000000
								CHANNELS 3 Xrotation Yrotation Zrotation
								JOINT LeftHandThumb1
								{
									OFFSET 6.715286 -2.359680 3.363841
									CHANNELS 3 Xrotation Yrotation Zrotation
									JOINT LeftHandThumb2
									{
										OFFSET 2.507072 -1.447464 1.447461
										CHANNELS 3 Xrotation Yrotation Zrotation
										JOINT LeftHandThumb3
										{
											OFFSET 2.898338 -1.673355 1.673357
											CHANNELS 3 Xrotation Yrotation Zrotation
											End Site
											{
												OFFSET -0.295959 3.727692 -0.131651
											}
										}
									}
								}
								JOINT LeftHandIndex1
								{
									OFFSET 14.190811 -0.254547 3.840278
									CHANNELS 3 Xrotation Yrotation Zrotation
									JOINT LeftHandIndex2
									{
										OFFSET 3.551727 0.000000 -0.000000
										CHANNELS 3 Xrotation Yrotation Zrotation
										JOINT LeftHandIndex3
										{
											OFFSET 2.894196 0.000000 0.000000
											CHANNELS 3 Xrotation Yrotation Zrotation
											End Site
											{
												OFFSET -1.000603 2.690872 0.366626
											}
										}
									}
								}
								JOINT LeftHandMiddle1
								{
									OFFSET 13.776489 0.000000 0.000000
									CHANNELS 3 Xrotation Yrotation Zrotation
									JOINT LeftHandMiddle2
									{
										OFFSET 3.438232 0.000000 0.000000
										CHANNELS 3 Xrotation Yrotation Zrotation
										JOINT LeftHandMiddle3
										{
											OFFSET 3.691551 0.000000 0.000000
											CHANNELS 3 Xrotation Yrotation Zrotation
											End Site
											{
												OFFSET -1.082298 3.499527 0.457670
											}
										}
									}
								}
								JOINT LeftHandRing1
								{
									OFFSET 13.966164 -0.268127 -3.067488
									CHANNELS 3 Xrotation Yrotation Zrotation
									JOINT LeftHandRing2
									{
										OFFSET 3.162567 0.000000 0.000000
										CHANNELS 3 Xrotation Yrotation Zrotation
										JOINT LeftHandRing3
										{
											OFFSET 3.324348 0.000000 0.000000
											CHANNELS 3 Xrotation Yrotation Zrotation
											End Site
											{
												OFFSET -0.861900 3.184998 0.405154
											}
										}
									}
								}
								JOINT LeftHandPinky1
								{
									OFFSET 13.131393 -0.168503 -5.746925
									CHANNELS 3 Xrotation Yrotation Zrotation
									JOINT LeftHandPinky2
									{
										OFFSET 2.849182 0.000000 0.000000
										CHANNELS 3 Xrotation Yrotation Zrotation
										JOINT LeftHandPinky3
										{
											OFFSET 2.805038 0.000000 0.000000
											CHANNELS 3 Xrotation Yrotation Zrotation
											End Site
											{
												OFFSET -0.882500 2.642609 0.325652
											}
										}
									}
								}
							}
							JOINT Left_Sleeve
							{
								OFFSET 6.592125 -0.646545 0.805568
								CHANNELS 3 Xrotation Yrotation Zrotation
								End Site
								{
									OFFSET -0.000179 20.275787 -0.000000
								}
							}
						}
					}
				}
				JOINT RightShoulder
				{
					OFFSET -5.731700 15.108002 -2.763700
					CHANNELS 3 Xrotation Yrotation Zrotation
					JOINT RightArm
					{
						OFFSET -9.825497 2.506317 -1.597400
						CHANNELS 3 Xrotation Yrotation Zrotation
						JOINT RightForeArm
						{
							OFFSET -21.966242 0.000000 0.000000
							CHANNELS 3 Xrotation Yrotation Zrotation
							JOINT RightHand
							{
								OFFSET -33.879032 0.000000 0.000000
								CHANNELS 3 Xrotation Yrotation Zrotation
								JOINT RightHandThumb1
								{
									OFFSET -6.715286 -2.359680 3.363841
									CHANNELS 3 Xrotation Yrotation Zrotation
									JOINT RightHandThumb2
									{
										OFFSET -2.507072 -1.447464 1.447461
										CHANNELS 3 Xrotation Yrotation Zrotation
										JOINT RightHandThumb3
										{
											OFFSET -2.898338 -1.673355 1.673357
											CHANNELS 3 Xrotation Yrotation Zrotation
											End Site
											{
												OFFSET 0.295959 3.727692 -0.131651
											}
										}
									}
								}
								JOINT RightHandIndex1
								{
									OFFSET -14.190811 -0.254547 3.840278
									CHANNELS 3 Xrotation Yrotation Zrotation
									JOINT RightHandIndex2
									{
										OFFSET -3.551727 0.000000 -0.000000
										CHANNELS 3 Xrotation Yrotation Zrotation
										JOINT RightHandIndex3
										{
											OFFSET -2.894196 0.000000 0.000000
											CHANNELS 3 Xrotation Yrotation Zrotation
											End Site
											{
												OFFSET 1.000603 2.690872 0.366626
											}
										}
									}
								}
								JOINT RightHandMiddle1
								{
									OFFSET -13.776489 0.000000 0.000000
									CHANNELS 3 Xrotation Yrotation Zrotation
									JOINT RightHandMiddle2
									{
										OFFSET -3.438232 0.000000 0.000000
										CHANNELS 3 Xrotation Yrotation Zrotation
										JOINT RightHandMiddle3
										{
											OFFSET -3.691551 0.000000 0.000000
											CHANNELS 3 Xrotation Yrotation Zrotation
											End Site
											{
												OFFSET 1.082298 3.499527 0.457670
											}
										}
									}
								}
								JOINT RightHandRing1
								{
									OFFSET -13.966164 -0.268127 -3.067488
									CHANNELS 3 Xrotation Yrotation Zrotation
									JOINT RightHandRing2
									{
										OFFSET -3.162567 0.000000 0.000000
										CHANNELS 3 Xrotation Yrotation Zrotation
										JOINT RightHandRing3
										{
											OFFSET -3.324348 0.000000 0.000000
											CHANNELS 3 Xrotation Yrotation Zrotation
											End Site
											{
												OFFSET 0.861900 3.184998 0.405154
											}
										}
									}
								}
								JOINT RightHandPinky1
								{
									OFFSET -13.131393 -0.168503 -5.746925
									CHANNELS 3 Xrotation Yrotation Zrotation
									JOINT RightHandPinky2
									{
										OFFSET -2.849182 0.000000 0.000000
										CHANNELS 3 Xrotation Yrotation Zrotation
										JOINT RightHandPinky3
										{
											OFFSET -2.805038 0.000000 0.000000
											CHANNELS 3 Xrotation Yrotation Zrotation
											End Site
											{
												OFFSET 0.882500 2.642609 0.325652
											}
										}
									}
								}
							}
							JOINT Right_Sleeve
							{
								OFFSET -6.592125 -0.646545 0.805568
								CHANNELS 3 Xrotation Yrotation Zrotation
								End Site
								{
									OFFSET 0.000179 20.275787 -0.000000
								}
							}
						}
					}
				}
				JOINT Bind_Right_JacketString
				{
					OFFSET -3.534800 11.969597 7.200700
					CHANNELS 3 Xrotation Yrotation Zrotation
					JOINT Bind_Right_JacketString1
					{
						OFFSET -0.319900 -6.102600 2.794100
						CHANNELS 3 Xrotation Yrotation Zrotation
						End Site
						{
							OFFSET 0.000000 6.719452 0.000000
						}
					}
				}
				JOINT Bind_Left_JacketString
				{
					OFFSET 2.904800 11.969597 7.200700
					CHANNELS 3 Xrotation Yrotation Zrotation
					JOINT Bind_Left_JacketString1
					{
						OFFSET 0.364800 -5.904503 3.186800
						CHANNELS 3 Xrotation Yrotation Zrotation
						End Site
						{
							OFFSET 0.000000 6.719513 0.000000
						}
					}
				}
				JOINT HairE
				{
					OFFSET 5.915200 17.612701 -11.592200
					CHANNELS 3 Xrotation Yrotation Zrotation
					JOINT HairE1
					{
						OFFSET 0.289200 -7.171898 -1.284500
						CHANNELS 3 Xrotation Yrotation Zrotation
						End Site
						{
							OFFSET 0.000000 7.291756 0.000000
						}
					}
				}
				JOINT HairF
				{
					OFFSET -0.864800 17.612701 -11.592200
					CHANNELS 3 Xrotation Yrotation Zrotation
					JOINT HairF1
					{
						OFFSET 0.000000 -14.087097 -2.127501
						CHANNELS 3 Xrotation Yrotation Zrotation
						End Site
						{
							OFFSET 0.000000 14.246841 0.000000
						}
					}
				}
				JOINT HairG
				{
					OFFSET -8.087700 17.612701 -11.592200
					CHANNELS 3 Xrotation Yrotation Zrotation
					JOINT HairG1
					{
						OFFSET -0.293600 -6.081398 -0.910100
						CHANNELS 3 Xrotation Yrotation Zrotation
						End Site
						{
							OFFSET 0.000000 6.156120 0.000000
						}
					}
				}
			}
		}
	}
	JOINT Pouch
	{
		OFFSET 0.000000 4.394501 10.847300
		CHANNELS 3 Xrotation Yrotation Zrotation
		End Site
		{
			OFFSET 0.000000 21.880577 0.000000
		}
	}
	JOINT Bag
	{
		OFFSET -13.229000 4.813004 -0.593300
		CHANNELS 3 Xrotation Yrotation Zrotation
		End Site
		{
			OFFSET 0.000000 21.880577 0.000000
		}
	}
	JOINT OccupyGuyFacialAnim_Joint
	{
		OFFSET 1.000000 -70.206398 -1.655000
		CHANNELS 3 Xrotation Yrotation Zrotation
		End Site
		{
			OFFSET 0.000000 21.880577 0.000000
		}
	}
}
MOTION
Frames: 5
Frame Time: 0.033333
-1.486339 66.345329 1.370141 1.277311 -4.348734 4.888214 -0.000000 -0.000000 0.000000 -21.211936 -2.695055 12.808900 45.555422 8.385222 10.816578 -12.422689 -0.640461 3.487583 -0.000000 0.000000 0.000003 -0.000000 -0.000000 0.000002 -10.431388 -4.565578 15.246171 26.015154 1.531577 0.857466 -14.808658 3.589842 -21.862384 -0.000000 0.000000 0.000000 -0.000001 -0.000001 0.000001 5.534945 -3.897340 -5.016187 1.467153 -1.774708 -1.899959 1.491093 -1.811596 -1.857595 6.794553 -2.175849 -1.274171 14.870708 -12.722651 -1.945982 0.000001 -0.000000 -0.000001 0.000001 -0.000000 -0.000001 0.000001 -0.000000 -0.000000 0.000001 -0.000000 0.000000 -0.000000 0.000001 -0.000001 0.000001 -0.000000 0.000000 -0.000000 0.000001 -0.000001 0.000001 -0.000000 -0.000001 0.000001 -0.000000 -0.000001 0.472275 8.277345 -8.556600 -26.702847 -19.388366 -59.302783 -0.000003 -30.564383 0.000000 12.326855 17.401017 -2.417100 -1.785623 3.390493 3.677456 11.478656 24.033375 -7.113663 0.000004 -0.000000 0.000002 1.172218 3.852010 -32.447019 3.327771 5.896477 -58.848172 -0.000000 -0.000004 -0.000001 0.372109 2.422928 -28.038972 2.362674 5.195161 -48.886819 0.000001 0.000001 0.000001 2.088034 5.424260 -30.372120 3.093490 5.749111 -56.539169 0.000001 0.000003 0.000001 2.980282 6.353455 -35.680751 1.865750 0.629790 -43.304233 0.000001 -0.000000 0.000003 0.000000 -0.000004 0.000002 0.587507 -10.973466 9.732507 -15.471178 35.747653 69.466944 0.000683 83.904257 -0.000713 12.080033 12.220247 3.054451 -7.202353 -9.721267 -2.134714 11.367597 -12.893823 2.559580 -0.000002 -0.000001 0.000000 -0.513156 -2.759028 49.443319 3.052704 -5.757930 55.833941 0.000002 0.000003 -0.000004 1.009222 -3.964908 46.882412 4.289795 -6.421860 67.455064 0.000001 0.000001 0.000003 0.679403 -3.134527 33.864392 5.226255 -6.732492 75.617072 -0.000000 -0.000001 0.000001 3.794251 -6.580933 46.502038 4.065535 -6.324695 65.435118 0.000001 0.000004 0.000001 -0.000002 0.000001 0.000000 0.000000 0.000001 0.000000 0.000000 0.000001 0.000000 0.000000 0.000001 0.000000 0.000000 0.000001 0.000000 0.000000 0.000001 0.000000 0.000000 0.000001 0.000000 0.000000 0.000001 0.000000 0.000000 0.000001 0.000000 0.000000 0.000001 0.000000 0.000000 0.000001 0.000000 -0.000000 -0.000000 0.000000 -0.000000 -0.000000 0.000000 -0.000000 -0.000000 0.000000 
-2.630485 65.855476 2.620499 2.772801 -5.830278 4.958289 -0.000000 -0.000000 0.000000 -26.752340 -6.509142 11.462463 46.740579 2.051912 10.644671 -14.526848 -1.249580 6.120806 -0.000000 -0.000001 -0.000003 -0.000001 0.000000 0.000000 -10.068272 -4.456745 16.222389 25.948234 3.179954 1.052376 -15.720753 4.057887 -23.366864 -0.000000 -0.000000 -0.000000 0.000001 0.000001 -0.000002 6.702662 -3.507813 -5.809230 1.904625 -1.554404 -2.153581 1.925745 -1.590244 -2.114712 6.100393 -2.175841 -1.609749 12.802139 -12.889460 -1.024636 0.000002 -0.000001 0.000001 0.000002 -0.000001 0.000001 0.000002 -0.000001 0.000001 0.000002 -0.000001 0.000001 -0.000001 -0.000001 0.000001 0.000002 -0.000001 0.000001 -0.000001 -0.000001 0.000001 0.000002 -0.000001 0.000001 0.000002 -0.000001 0.000001 0.528912 8.543355 -9.124142 -24.511882 -17.733027 -55.043661 -0.000015 -32.011799 -0.000013 17.567689 19.096283 -4.483466 -1.883299 3.240092 3.634309 11.934060 25.020426 -7.416805 -0.000000 -0.000004 -0.000006 1.131304 3.786693 -32.987013 3.348316 5.908783 -59.047846 -0.000004 0.000001 0.000003 0.533360 2.749898 -29.061461 2.305630 5.145028 -48.253907 0.000001 0.000002 0.000003 2.194015 5.547966 -31.059787 3.063528 5.729311 -56.239733 0.000004 0.000000 -0.000001 2.940253 6.295507 -35.715807 1.899379 0.665204 -43.709300 -0.000000 -0.000001 0.000001 0.000001 0.000001 -0.000002 0.468836 -10.138853 8.685778 -14.366470 36.708558 64.696337 0.008240 88.953891 -0.008267 12.652875 11.233201 4.119950 -7.835730 -8.810622 -2.375314 10.655935 -12.291307 2.291753 0.000005 -0.000001 -0.000000 0.797030 -3.995039 51.562826 3.354663 -5.950665 58.793592 0.000001 -0.000002 -0.000005 1.511846 -4.443630 47.228084 4.536997 -6.518355 69.648545 -0.000000 0.000001 -0.000001 0.472804 -2.884978 35.308960 5.478609 -6.791782 77.760099 -0.000001 -0.000002 0.000001 3.473645 -6.236389 47.571663 4.270576 -6.413887 67.282991 -0.000002 0.000007 -0.000004 0.000000 0.000000 0.000001 0.000000 0.000001 0.000001 0.000000 0.000000 0.000000 0.000000 0.000001 0.000000 0.000000 0.000001 0.000000 0.000000 0.000001 0.000001 0.000000 0.000000 0.000000 0.000000 0.000001 0.000000 0.000000 0.000001 0.000000 0.000000 0.000001 0.000001 0.000000 0.000000 0.000000 -0.000000 -0.000000 0.000000 -0.000000 -0.000000 0.000000 -0.000000 -0.000000 0.000000 
-3.589381 65.390053 3.727431 4.206981 -7.878539 5.021169 0.000000 -0.000000 0.000000 -34.309229 -8.576586 8.715024 50.819828 -2.798455 10.437700 -14.136783 -1.053696 5.243489 0.000001 0.000001 0.000001 -0.000001 -0.000001 -0.000002 -9.807075 -4.444297 16.790077 26.252607 5.745148 1.420658 -16.450905 4.547555 -24.918301 -0.000000 0.000000 -0.000000 0.000002 0.000000 -0.000002 8.335820 -3.057124 -6.420031 2.553932 -1.297507 -2.336107 2.572546 -1.327528 -2.301807 4.656338 -2.099986 -1.702213 8.318088 -12.503028 -0.587625 0.000000 0.000000 0.000000 0.000000 0.000000 0.000000 0.000000 0.000000 0.000001 0.000000 0.000000 -0.000000 -0.000001 0.000002 -0.000001 0.000000 0.000000 -0.000000 -0.000001 0.000002 -0.000001 0.000000 0.000000 0.000000 0.000000 0.000000 0.000000 0.531788 8.896451 -9.143733 -22.644133 -16.161397 -51.353693 0.000011 -33.458126 0.000016 20.181476 19.715548 -5.310895 -2.490991 2.277726 3.533651 12.523376 26.246605 -7.807535 -0.000001 0.000001 -0.000001 1.087383 3.723006 -34.078160 3.379043 5.927004 -59.346052 -0.000000 -0.000002 -0.000004 0.722259 3.109521 -30.534876 2.242716 5.088427 -47.548680 0.000001 -0.000000 0.000001 2.374364 5.734210 -32.383955 3.047116 5.718347 -56.074866 0.000000 0.000001 -0.000002 2.941378 6.261693 -36.154599 1.945396 0.712872 -44.258799 -0.000000 -0.000002 -0.000003 0.000003 0.000000 0.000001 0.353669 -9.214699 7.533834 -13.509111 38.176355 59.061991 0.001880 94.274294 -0.001873 14.694293 10.348110 5.801377 -8.477632 -7.904971 -2.201817 9.827142 -11.574743 1.981881 0.000004 0.000000 0.000002 2.194275 -5.137528 53.810716 3.724207 -6.158208 62.296455 0.000002 0.000003 0.000001 2.032765 -4.926819 47.550565 4.841610 -6.622658 72.310045 0.000004 0.000002 0.000001 0.255730 -2.673393 37.080445 5.747463 -6.844190 80.024395 -0.000000 -0.000000 -0.000001 3.058719 -5.829543 48.918566 4.533733 -6.517158 69.619777 0.000002 0.000006 0.000001 0.000003 0.000000 0.000001 -0.000000 0.000000 -0.000000 0.000002 -0.000001 0.000001 -0.000000 0.000000 0.000000 -0.000000 0.000000 0.000000 -0.000000 0.000000 -0.000000 0.000002 -0.000001 0.000000 -0.000000 0.000000 0.000000 -0.000000 0.000000 0.000000 -0.000000 0.000000 -0.000000 0.000002 -0.000001 0.000000 0.000000 -0.000000 0.000000 0.000000 -0.000000 0.000000 0.000000 -0.000000 0.000000 
-4.336240 65.008423 4.805019 5.442858 -10.933807 5.092360 -0.000000 -0.000000 -0.000000 -42.434254 -8.009045 4.648912 55.406382 -3.109838 9.788414 -10.868870 -0.464745 2.975174 0.000001 0.000001 -0.000001 0.000004 0.000001 0.000000 -9.230703 -4.469447 16.891025 26.731626 9.418848 1.872966 -17.002489 5.058395 -26.459535 -0.000000 0.000000 -0.000000 -0.000000 -0.000001 0.000000 10.788934 -2.295981 -6.842077 3.545485 -0.891825 -2.428782 3.559726 -0.904815 -2.403862 2.480777 -1.934080 -1.596823 1.334222 -11.484628 -0.699979 0.000000 -0.000001 0.000001 0.000000 -0.000001 0.000001 0.000000 -0.000001 0.000001 0.000000 -0.000001 0.000001 0.000001 -0.000001 -0.000000 0.000000 -0.000001 0.000001 0.000001 -0.000001 -0.000000 0.000000 -0.000001 0.000001 0.000000 -0.000001 0.000001 0.476490 9.404615 -8.652979 -20.017198 -15.175079 -47.983097 0.000001 -35.376937 -0.000029 17.788452 17.010142 -3.117829 -4.251233 -0.528565 3.335457 13.016723 27.234215 -8.134754 0.000003 0.000002 -0.000002 0.894416 3.465426 -35.583991 3.435145 5.959723 -59.887707 0.000001 -0.000003 -0.000002 0.928695 3.467869 -32.228705 2.196182 5.045612 -47.021614 0.000003 0.000003 -0.000004 2.693825 6.057018 -34.376940 3.052798 5.722154 -56.131956 0.000002 -0.000002 -0.000003 2.997208 6.272129 -36.980430 1.983185 0.751360 -44.706313 -0.000001 -0.000001 -0.000001 0.000002 0.000000 -0.000001 0.184695 -8.017613 5.633999 -14.846531 40.017132 53.718413 0.000330 98.159927 -0.000333 17.890726 9.285406 8.331766 -8.736213 -7.612516 -1.402242 9.133454 -10.961952 1.722706 -0.000002 -0.000001 -0.000001 3.270056 -5.903832 55.954931 4.256018 -6.407801 67.152958 -0.000003 0.000000 0.000002 2.413027 -5.271644 47.956114 5.245531 -6.737363 75.781400 0.000001 0.000002 0.000005 0.177746 -2.681746 38.960430 6.018274 -6.886026 82.289634 -0.000001 0.000001 0.000002 2.702358 -5.510732 50.246768 4.866182 -6.630418 72.523140 0.000003 -0.000001 -0.000003 0.000001 -0.000001 -0.000002 0.000002 -0.000000 -0.000000 0.000002 -0.000000 -0.000000 0.000002 -0.000000 -0.000001 0.000002 -0.000000 -0.000001 0.000002 -0.000000 -0.000000 0.000002 -0.000000 -0.000000 0.000002 -0.000000 -0.000001 0.000002 -0.000000 -0.000001 0.000002 -0.000000 -0.000000 0.000002 -0.000000 -0.000000 -0.000000 -0.000000 -0.000000 -0.000000 -0.000000 -0.000000 -0.000000 -0.000000 -0.000000 
-4.956311 64.739204 5.990402 6.746462 -14.657113 5.468271 0.000000 -0.000001 -0.000000 -49.504361 -5.491577 1.369531 57.494599 -0.349125 5.852959 -5.561906 -0.241327 2.286280 0.000000 -0.000000 -0.000001 0.000002 -0.000001 -0.000001 -8.315044 -4.270569 16.590987 26.947938 9.817419 2.097375 -17.542969 8.948180 -26.657588 0.000000 0.000000 0.000000 -0.000000 0.000001 -0.000000 13.693443 -1.233899 -7.495038 4.702114 -0.324171 -2.576743 4.706696 -0.312493 -2.569888 0.241022 -1.720436 -1.633651 -6.033863 -10.527885 -0.475653 -0.000001 -0.000001 -0.000001 -0.000001 -0.000001 -0.000001 -0.000001 -0.000001 -0.000001 -0.000001 -0.000001 -0.000000 -0.000001 -0.000001 -0.000001 -0.000001 -0.000001 -0.000000 -0.000001 -0.000001 -0.000001 -0.000001 -0.000001 -0.000001 -0.000001 -0.000001 -0.000001 0.449772 10.043147 -8.502875 -16.459991 -13.882890 -45.029726 0.000006 -38.118746 0.000014 12.089875 10.963901 1.110530 -7.265518 -5.387730 3.041101 13.141725 27.479094 -8.217741 -0.000001 -0.000000 -0.000002 0.433748 2.882595 -36.970752 3.517221 6.006304 -60.675132 0.000003 0.000000 -0.000002 1.115102 3.762362 -33.586779 2.181166 5.031640 -46.850607 0.000000 0.000005 0.000001 3.164339 6.524656 -36.593647 3.069926 5.733558 -56.303647 -0.000001 -0.000000 -0.000003 3.093174 6.326406 -37.908393 1.984588 0.752775 -44.722866 -0.000000 -0.000000 -0.000002 0.000000 0.000001 -0.000001 -0.055061 -6.614742 2.407430 -19.321174 41.329799 50.682299 0.000237 99.538628 -0.000232 20.543346 7.874047 10.990377 -8.282129 -8.336617 -0.105645 8.853280 -10.710984 1.617871 0.000001 -0.000002 -0.000001 3.624714 -6.121073 57.789056 4.991988 -6.668429 73.609543 -0.000001 -0.000001 0.000002 2.531983 -5.374144 48.649009 5.754092 -6.845330 80.080082 -0.000001 -0.000003 -0.000001 0.376050 -3.017470 40.659775 6.280352 -6.916224 84.470684 -0.000002 0.000000 0.000004 2.607937 -5.431087 51.217662 5.250870 -6.738729 75.826998 0.000001 0.000001 0.000004 0.000003 0.000001 0.000000 -0.000000 -0.000001 0.000001 0.000003 -0.000001 -0.000000 -0.000000 -0.000001 -0.000000 -0.000000 -0.000001 -0.000000 -0.000000 -0.000001 0.000001 0.000003 -0.000001 -0.000000 -0.000000 -0.000001 -0.000000 -0.000000 -0.000001 -0.000000 -0.000000 -0.000001 0.000001 0.000003 -0.000001 -0.000000 0.000000 -0.000001 -0.000000 0.000000 -0.000001 -0.000000 0.000000 -0.000001 -0.000000 
